<?xml version="1.0" standalone="no"?>
<!DOCTYPE svg PUBLIC "-//W3C//DTD SVG 20010904//EN"
 "http://www.w3.org/TR/2001/REC-SVG-20010904/DTD/svg10.dtd">
<svg version="1.0" xmlns="http://www.w3.org/2000/svg"
 width="300.000000pt" height="79.000000pt" viewBox="0 0 300.000000 79.000000"
 preserveAspectRatio="xMidYMid meet">
<metadata>
Created by potrace 1.10, written by Peter Selinger 2001-2011
</metadata>
<g transform="translate(0.000000,79.000000) scale(0.100000,-0.100000)"
fill="#000000" stroke="none">
<path d="M0 764 c0 -28 4 -31 50 -43 104 -27 180 -129 180 -240 0 -112 -106
-231 -205 -231 -24 0 -25 -2 -25 -65 0 -61 1 -65 23 -65 39 0 123 -47 152 -84
19 -24 35 -36 52 -36 l25 0 -26 34 c-20 27 -23 36 -12 45 9 8 20 3 41 -19 36
-38 46 -37 74 1 18 24 25 28 37 18 12 -10 11 -15 -6 -39 -25 -35 -25 -40 0
-40 11 0 37 19 58 42 49 54 102 78 177 78 74 0 126 -23 180 -79 21 -22 47 -41
57 -41 23 0 23 5 -2 40 -17 23 -18 30 -6 39 11 9 19 5 39 -19 14 -16 30 -30
34 -30 5 0 22 13 38 30 21 22 32 27 41 19 11 -9 8 -18 -12 -45 l-26 -34 25 0
c16 0 33 11 51 34 14 19 49 46 78 60 101 50 221 28 292 -56 24 -28 41 -39 56
-36 l22 3 -22 28 c-13 16 -19 34 -16 44 6 14 12 11 39 -15 18 -18 38 -32 44
-32 6 0 23 14 38 31 18 23 29 29 37 21 7 -7 4 -21 -12 -46 l-22 -36 21 0 c12
0 37 18 57 39 49 55 107 81 180 81 73 0 152 -35 190 -86 15 -19 35 -34 45 -34
24 0 24 11 -1 42 -14 19 -16 28 -8 36 9 9 20 4 45 -20 l33 -32 33 32 c25 24
36 29 45 20 8 -8 6 -17 -8 -36 -25 -31 -25 -42 -1 -42 11 0 32 16 46 35 39 51
115 85 189 85 76 0 129 -24 178 -78 22 -24 47 -42 59 -42 l21 0 -22 36 c-29
50 -11 69 25 25 15 -17 32 -31 38 -31 6 0 26 14 44 32 27 26 33 29 39 15 3
-10 -3 -28 -16 -44 l-22 -28 22 -3 c15 -3 32 8 56 36 34 40 108 82 144 82 14
0 20 7 20 24 0 23 -2 23 -41 15 -46 -11 -75 -24 -101 -46 -10 -9 -25 -13 -34
-9 -15 6 -13 11 14 39 18 18 32 38 32 43 0 6 -14 23 -30 39 -42 40 -23 53 32
22 23 -14 62 -30 86 -35 40 -9 42 -9 42 13 0 18 -7 24 -38 29 -49 7 -114 54
-149 107 -35 53 -44 149 -19 214 25 63 87 121 152 142 41 12 54 21 54 36 0 17
-5 18 -37 12 -41 -7 -108 -39 -118 -55 -5 -8 -11 -7 -21 1 -13 10 -10 17 18
46 l32 33 -25 0 c-14 0 -34 -9 -44 -20 l-18 -20 -22 20 c-26 24 -72 26 -97 3
-17 -15 -19 -15 -36 0 -10 10 -31 17 -47 17 l-29 0 32 -33 c28 -29 31 -36 18
-46 -10 -8 -16 -9 -21 -1 -10 16 -77 48 -118 55 -20 4 -37 11 -37 16 0 5 -9 9
-20 9 -11 0 -20 -4 -20 -8 0 -5 -22 -14 -48 -21 -27 -6 -65 -23 -85 -36 -45
-31 -60 -15 -23 24 14 15 26 30 26 34 0 15 -48 6 -65 -13 l-18 -20 -22 20
c-27 26 -67 26 -90 0 l-18 -20 -22 20 c-20 19 -65 28 -65 13 0 -4 12 -19 26
-34 37 -39 22 -55 -23 -24 -20 13 -58 30 -85 36 -26 7 -48 16 -48 21 0 4 -9 8
-20 8 -11 0 -20 -4 -20 -9 0 -5 -17 -12 -37 -16 -41 -7 -108 -39 -118 -55 -5
-8 -11 -7 -21 1 -13 10 -10 17 18 46 l32 33 -29 0 c-16 0 -37 -7 -47 -17 -17
-15 -19 -15 -36 0 -25 23 -75 21 -97 -3 l-18 -20 -19 20 c-10 11 -31 20 -45
20 l-27 0 32 -33 c28 -29 31 -36 18 -46 -10 -8 -16 -9 -21 -1 -10 16 -77 48
-118 55 -20 4 -37 11 -37 16 0 5 -9 9 -20 9 -11 0 -20 -4 -20 -8 0 -5 -22 -14
-48 -21 -27 -6 -65 -23 -84 -36 -30 -21 -38 -22 -48 -10 -9 11 -5 18 19 36 17
13 31 26 31 31 0 16 -47 7 -65 -12 l-18 -20 -22 20 c-27 25 -69 26 -94 1 -19
-19 -20 -19 -37 0 -10 11 -30 19 -48 19 l-30 0 34 -35 c26 -27 31 -38 22 -47
-9 -9 -16 -8 -29 5 -25 22 -103 57 -130 57 -13 0 -23 5 -23 10 0 6 -7 10 -15
10 -8 0 -15 -4 -15 -10 0 -5 -6 -10 -12 -10 -30 0 -88 -22 -123 -46 -27 -18
-41 -22 -48 -15 -8 8 -1 21 23 46 l34 35 -30 0 c-18 0 -38 -8 -48 -19 -17 -19
-18 -19 -37 0 -25 25 -71 24 -94 -1 l-18 -20 -22 20 c-21 20 -65 28 -65 12 0
-5 14 -18 31 -31 24 -18 28 -25 19 -36 -10 -12 -18 -10 -48 10 -21 13 -57 29
-82 36 -25 7 -48 18 -52 24 -4 5 -8 -4 -8 -21z m314 -22 c15 -18 15 -20 -4
-37 -19 -17 -22 -17 -36 -3 -13 13 -14 19 -2 37 16 26 20 26 42 3z m604 -3
c12 -18 11 -24 -2 -37 -14 -14 -17 -14 -36 3 -19 17 -19 19 -4 37 22 23 26 23
42 -3z m603 -32 c-18 -19 -21 -19 -36 -3 -16 16 -16 18 0 37 17 18 19 18 37 2
18 -16 18 -17 -1 -36z m613 35 c15 -18 15 -20 -4 -37 -19 -17 -21 -17 -40 0
-19 17 -19 19 -4 37 10 10 20 18 24 18 4 0 14 -8 24 -18z m602 -37 c-16 -16
-18 -16 -37 0 -18 17 -18 19 -2 37 16 18 17 18 36 -1 19 -18 19 -21 3 -36z
m-2029 -4 c83 -42 143 -155 129 -244 -10 -60 -53 -132 -98 -163 -164 -114
-382 -5 -383 191 0 181 191 299 352 216z m572 14 c100 -35 161 -122 161 -227
0 -69 -16 -111 -59 -161 -45 -51 -109 -79 -179 -79 -100 0 -177 48 -218 137
-89 191 97 400 295 330z m637 -13 c73 -38 121 -107 131 -190 25 -219 -245
-351 -406 -199 -129 122 -82 341 86 403 50 19 138 12 189 -14z m577 14 c168
-60 215 -281 86 -403 -76 -71 -189 -86 -280 -37 -192 105 -160 380 51 445 39
12 101 9 143 -5z m-2235 -51 c25 -32 39 -31 74 2 42 40 57 18 23 -32 -14 -21
-28 -50 -31 -64 -12 -54 -16 -61 -35 -61 -13 0 -19 7 -19 23 0 26 -43 121 -59
131 -6 4 -9 12 -6 17 11 16 33 10 53 -16z m602 0 c30 -32 49 -32 76 2 14 17
26 24 37 20 15 -6 13 -12 -13 -54 -17 -26 -33 -65 -37 -85 -8 -55 -37 -52 -51
5 -6 24 -23 60 -37 81 -37 54 -19 77 25 31z m610 0 c30 -31 37 -31 72 2 21 20
31 24 40 15 9 -9 8 -16 -5 -30 -22 -24 -47 -86 -47 -117 0 -19 -5 -25 -23 -25
-19 0 -24 8 -34 50 -7 28 -22 64 -33 80 -20 27 -20 50 -1 50 4 0 18 -11 31
-25z m600 0 c30 -32 47 -31 81 1 39 37 55 22 24 -23 -13 -20 -30 -58 -36 -85
-9 -32 -18 -48 -29 -48 -11 0 -20 16 -29 48 -6 27 -23 65 -36 84 -22 32 -23
48 -5 48 4 0 17 -11 30 -25z m610 0 c30 -31 37 -31 72 2 44 42 52 18 18 -51
-17 -32 -30 -69 -30 -82 0 -19 -5 -24 -25 -24 -20 0 -25 5 -25 25 0 31 -25 93
-46 117 -15 16 -12 38 5 38 4 0 18 -11 31 -25z m-2361 -242 c7 -27 24 -65 37
-87 19 -27 23 -41 15 -49 -8 -8 -21 -1 -46 23 l-35 34 -35 -34 c-28 -27 -35
-30 -40 -17 -4 9 3 28 14 44 12 15 26 52 33 81 17 69 41 71 57 5z m601 29 c0
-32 31 -109 51 -128 15 -13 16 -20 7 -31 -9 -11 -17 -8 -45 19 l-33 32 -35
-34 c-25 -24 -38 -31 -46 -23 -8 8 -4 22 15 49 13 22 30 60 37 87 8 35 16 47
30 47 12 0 19 -7 19 -18z m610 -23 c4 -19 18 -57 33 -84 20 -34 24 -52 17 -59
-8 -8 -18 -1 -36 22 -32 40 -45 40 -79 1 -42 -50 -51 -23 -15 45 16 32 30 71
30 88 0 25 4 29 22 26 17 -2 24 -12 28 -39z m605 4 c7 -41 39 -108 55 -118 8
-5 7 -11 -1 -21 -10 -13 -17 -10 -46 18 l-33 32 -33 -32 c-29 -28 -36 -31 -46
-18 -8 10 -9 16 -1 21 16 10 48 77 55 118 5 26 12 37 25 37 13 0 20 -11 25
-37z m605 8 c0 -16 14 -55 30 -87 35 -66 27 -88 -15 -44 -16 16 -34 30 -39 30
-6 0 -23 -14 -38 -32 -19 -24 -30 -30 -38 -22 -7 7 -2 26 20 65 16 30 30 66
30 80 0 30 7 39 32 39 13 0 18 -8 18 -29z m-2428 -209 c-20 -20 -21 -20 -38
-1 -16 18 -16 20 1 39 18 20 19 20 38 1 19 -19 19 -19 -1 -39z m604 -1 c-17
-19 -18 -19 -38 1 -19 19 -19 20 -2 39 18 20 18 20 38 0 19 -19 19 -21 2 -40z
m609 -1 c-19 -21 -19 -21 -39 -1 -19 20 -19 21 -1 41 19 21 19 21 39 1 19 -20
19 -21 1 -41z m1210 0 c-19 -21 -19 -21 -39 -1 -19 20 -19 21 -1 41 19 21 19
21 39 1 19 -20 19 -21 1 -41z m-605 34 c11 -12 10 -18 -3 -32 -16 -15 -18 -15
-34 0 -13 14 -14 20 -3 32 7 9 16 16 20 16 4 0 13 -7 20 -16z m-1944 -5 c3 -6
-6 -23 -20 -38 -14 -15 -26 -31 -26 -36 0 -5 14 -24 32 -42 27 -28 29 -33 14
-39 -9 -4 -24 0 -34 9 -24 22 -86 47 -117 47 -20 0 -25 5 -25 25 0 21 5 25 28
25 30 0 106 32 116 49 9 14 23 14 32 0z m263 -14 c21 -14 58 -29 82 -33 34 -6
44 -12 44 -26 0 -14 -12 -22 -46 -30 -25 -7 -63 -22 -84 -35 -27 -16 -41 -19
-49 -11 -8 8 -1 19 22 42 l34 30 -32 33 c-18 18 -29 38 -26 44 10 15 11 15 55
-14z m347 14 c3 -6 -8 -26 -26 -44 l-32 -33 34 -30 c23 -23 30 -34 22 -42 -8
-8 -22 -5 -49 11 -21 13 -59 28 -84 35 -34 8 -46 16 -46 30 0 14 10 20 44 26
24 4 60 19 80 32 41 28 47 30 57 15z m240 0 c10 -17 86 -49 117 -49 22 0 27
-4 27 -25 0 -20 -5 -25 -25 -25 -31 0 -93 -25 -117 -47 -10 -9 -25 -13 -34 -9
-15 6 -13 11 14 39 18 18 32 37 32 42 0 5 -12 21 -26 36 -14 15 -23 32 -20 38
9 14 23 14 32 0z m369 1 c3 -6 -7 -22 -24 -36 -17 -14 -31 -31 -31 -37 0 -6
14 -26 32 -44 27 -28 29 -33 14 -39 -9 -4 -24 0 -34 9 -24 22 -86 47 -117 47
-20 0 -25 5 -25 25 0 21 5 25 29 25 16 0 53 13 82 29 62 34 66 35 74 21z m261
-17 c26 -15 64 -29 83 -33 27 -4 37 -11 39 -28 3 -18 -1 -22 -26 -22 -17 0
-56 -14 -88 -30 -68 -36 -95 -27 -45 15 39 33 39 47 0 78 -18 14 -29 29 -25
36 9 14 6 15 62 -16z m340 16 c3 -6 -6 -23 -20 -38 -32 -34 -32 -38 1 -73 20
-21 24 -31 16 -39 -9 -9 -19 -6 -40 8 -40 27 -80 43 -108 43 -20 0 -25 5 -25
25 0 21 5 25 28 25 30 0 106 32 116 49 9 14 23 14 32 0z m240 0 c10 -17 86
-49 117 -49 22 0 27 -4 27 -25 0 -20 -5 -25 -25 -25 -28 0 -68 -16 -108 -43
-21 -14 -31 -17 -40 -8 -8 8 -3 20 21 44 l32 33 -31 31 c-17 17 -28 36 -25 42
9 14 23 14 32 0z m370 -1 c4 -6 -6 -22 -25 -37 -39 -32 -39 -43 0 -76 50 -42
23 -51 -45 -15 -32 16 -71 30 -88 30 -25 0 -29 4 -26 22 2 17 12 24 38 28 20
4 56 18 80 32 53 31 57 32 66 16z m-2373 -90 c-15 -17 -17 -17 -35 -1 -17 15
-17 17 -1 35 15 17 17 17 35 1 17 -15 17 -17 1 -35z m141 29 c8 -13 7 -21 -6
-34 -16 -16 -19 -16 -38 2 -19 17 -19 19 -3 37 19 21 32 20 47 -5z m470 5 c15
-18 15 -20 -4 -37 -16 -14 -22 -15 -35 -5 -18 15 -19 32 -3 48 16 16 22 15 42
-6z m129 -34 c-15 -17 -17 -17 -35 -1 -17 15 -17 17 -1 35 15 17 17 17 35 1
17 -15 17 -17 1 -35z m473 38 c18 -19 18 -30 -1 -46 -13 -10 -19 -9 -35 5 -19
17 -19 19 -4 37 20 22 22 22 40 4z m138 -4 c15 -18 15 -20 -4 -37 -19 -17 -21
-17 -40 0 -19 17 -19 19 -4 37 10 10 20 18 24 18 4 0 14 -8 24 -18z m467 -35
c-18 -19 -21 -19 -36 -3 -16 16 -16 18 0 37 17 18 19 18 37 2 18 -16 18 -17
-1 -36z m135 -2 c-16 -16 -18 -16 -37 0 -18 17 -18 19 -2 37 16 18 17 18 36
-1 19 -18 19 -21 3 -36z m478 37 c15 -18 15 -20 -4 -37 -19 -17 -21 -17 -40 0
-19 17 -19 19 -4 37 10 10 20 18 24 18 4 0 14 -8 24 -18z m130 0 c15 -18 15
-20 -4 -37 -19 -17 -22 -17 -36 -3 -13 13 -14 19 -2 37 16 26 20 26 42 3z
m-2490 -70 c15 -18 15 -20 -2 -35 -18 -16 -20 -16 -37 3 -14 16 -15 22 -5 35
16 19 23 19 44 -3z m606 3 c10 -13 9 -19 -5 -35 -17 -19 -19 -19 -37 -3 -17
15 -17 17 -2 35 21 22 28 22 44 3z m607 -1 c15 -14 14 -17 -4 -35 -19 -20 -19
-20 -38 0 -14 17 -15 23 -5 36 16 19 27 19 47 -1z m604 0 c17 -15 16 -17 -2
-35 -19 -19 -19 -19 -38 0 -17 17 -18 20 -3 35 20 20 21 20 43 0z m609 1 c10
-13 9 -19 -5 -36 l-19 -20 -20 21 c-20 20 -20 20 -1 35 25 18 30 18 45 0z"/>
<path d="M475 648 c-52 -28 -61 -86 -19 -129 l27 -28 -32 -36 c-17 -20 -31
-47 -31 -61 0 -32 50 -84 80 -84 14 0 51 28 99 75 l77 75 23 -24 c25 -27 25
-53 -1 -70 -13 -8 -22 -6 -38 9 -19 17 -22 17 -36 3 -14 -14 -13 -17 12 -37
35 -28 75 -27 102 2 30 32 29 81 -3 113 -14 14 -25 27 -25 31 0 3 14 21 30 40
36 41 38 76 5 108 -31 32 -75 32 -112 1 -24 -21 -26 -26 -14 -40 13 -15 16
-15 36 4 12 11 28 20 36 20 18 0 39 -19 39 -35 0 -14 -42 -65 -53 -65 -4 0
-37 29 -72 65 -36 36 -69 65 -74 65 -5 0 -15 2 -23 5 -7 2 -22 0 -33 -7z m113
-101 l62 -63 -47 -45 c-85 -79 -99 -90 -116 -83 -30 11 -31 44 -1 75 l28 29
21 -20 c20 -19 23 -19 35 -5 11 13 10 19 -5 35 -17 19 -17 21 -1 39 15 16 15
19 1 31 -13 10 -19 10 -33 -4 -17 -15 -20 -14 -40 7 -22 23 -28 48 -15 60 19
20 53 2 111 -56z"/>
<path d="M1083 650 c-32 -13 -56 -55 -49 -85 3 -13 18 -36 33 -49 l27 -26 -32
-33 c-47 -49 -43 -105 10 -133 41 -21 64 -11 140 64 l67 66 26 -24 c29 -27 31
-42 9 -61 -14 -11 -21 -10 -46 4 -49 28 -70 -6 -23 -37 35 -23 72 -20 100 9
33 32 31 68 -4 107 l-30 33 31 32 c39 40 41 83 8 118 -31 33 -70 32 -110 -1
-28 -24 -30 -28 -16 -42 14 -14 18 -14 40 7 17 16 31 21 45 16 29 -9 27 -46
-4 -75 l-26 -24 -67 66 c-71 70 -94 82 -129 68z m105 -103 l63 -63 -70 -68
c-62 -59 -73 -66 -91 -56 -27 14 -25 39 7 75 l26 29 19 -24 c18 -22 20 -22 36
-7 15 16 15 18 -7 33 l-22 16 21 23 c18 20 19 23 5 35 -13 11 -19 10 -35 -5
-16 -15 -22 -16 -35 -5 -28 23 -38 50 -24 66 21 25 44 15 107 -49z"/>
<path d="M1684 646 c-53 -23 -59 -78 -15 -129 29 -32 29 -33 10 -45 -11 -7
-27 -28 -35 -46 -14 -29 -15 -37 -3 -62 17 -35 61 -58 92 -48 12 4 52 37 89
74 l66 68 22 -23 c42 -45 4 -100 -41 -59 -18 16 -21 16 -35 2 -14 -14 -13 -17
12 -37 48 -37 104 -24 123 30 12 34 4 57 -31 95 -19 21 -19 22 11 52 80 79
-20 191 -106 118 -24 -21 -26 -26 -14 -40 13 -15 16 -15 36 4 24 23 45 26 63
8 19 -19 14 -42 -13 -68 l-25 -24 -63 61 c-52 51 -96 84 -109 83 -2 -1 -17 -7
-34 -14z m114 -99 l63 -63 -70 -68 c-60 -57 -73 -66 -89 -57 -32 17 -33 38 -5
71 l26 31 22 -21 c20 -18 23 -19 35 -5 11 13 10 19 -5 35 -17 19 -17 21 -1 39
19 21 14 41 -9 41 -8 0 -18 -8 -24 -17 -9 -17 -12 -16 -35 6 -25 24 -33 51
-19 64 19 20 53 2 111 -56z"/>
<path d="M2295 650 c-55 -22 -65 -84 -20 -130 l28 -29 -32 -36 c-46 -53 -40
-104 17 -134 37 -20 62 -7 136 68 l69 69 24 -29 c14 -16 22 -36 19 -44 -9 -24
-35 -29 -55 -11 -38 34 -65 8 -30 -30 30 -32 72 -31 104 1 34 34 33 74 -5 110
l-29 28 34 39 c38 41 42 57 23 91 -27 52 -80 62 -125 23 -24 -21 -26 -26 -14
-40 13 -15 16 -15 36 4 28 26 51 26 66 -1 9 -19 7 -26 -20 -53 l-31 -31 -67
67 c-71 69 -95 82 -128 68z m104 -102 l64 -61 -71 -69 c-62 -61 -73 -68 -91
-58 -28 15 -26 38 6 72 l27 28 21 -20 c20 -19 23 -19 36 -4 11 14 10 19 -8 34
-22 18 -22 18 -2 36 17 16 18 19 5 33 -14 13 -18 13 -35 -4 -20 -17 -21 -17
-40 6 -21 24 -26 50 -14 62 16 17 43 3 102 -55z"/>
<path d="M26 632 c-24 -26 -25 -30 -11 -42 13 -11 19 -10 36 8 22 25 39 28 57
10 19 -19 14 -42 -13 -68 l-25 -24 -35 34 -35 34 0 -30 c0 -18 8 -38 20 -49
l20 -18 -20 -22 c-11 -12 -20 -34 -20 -50 l0 -29 36 35 35 34 25 -28 c19 -22
22 -32 14 -48 -13 -23 -37 -24 -62 -2 -17 15 -20 15 -34 1 -14 -14 -13 -17 12
-37 51 -40 118 -18 130 45 5 25 0 38 -24 65 l-30 34 29 33 c39 43 40 92 3 121
-37 29 -75 27 -108 -7z"/>
<path d="M2904 650 c-28 -11 -54 -48 -54 -78 0 -13 14 -37 31 -54 l30 -31 -29
-31 c-38 -41 -43 -56 -26 -94 30 -73 144 -57 144 21 l0 29 -35 -31 c-29 -26
-39 -29 -55 -21 -27 14 -25 43 4 77 l25 28 16 -22 c9 -13 21 -23 26 -23 19 0
21 31 4 50 -17 19 -17 21 0 40 14 16 16 23 7 32 -9 9 -16 7 -32 -7 -16 -15
-22 -16 -35 -5 -40 33 -41 80 -2 80 12 0 34 -12 49 -27 l28 -27 0 31 c0 47
-51 81 -96 63z"/>
<path d="M55 51 c-11 -5 -29 -19 -40 -31 l-20 -23 40 7 c51 8 53 8 94 0 31 -6
32 -5 22 14 -8 15 -66 47 -75 41 -1 0 -10 -4 -21 -8z"/>
<path d="M665 50 c-11 -4 -28 -16 -38 -27 -17 -19 -16 -20 58 -19 41 0 75 3
75 7 0 10 -34 36 -55 42 -11 3 -29 2 -40 -3z"/>
<path d="M1264 45 c-16 -6 -36 -20 -44 -30 -14 -17 -12 -17 25 -11 51 8 53 8
94 0 31 -6 32 -5 22 14 -16 29 -61 42 -97 27z"/>
<path d="M1875 50 c-11 -4 -29 -18 -40 -30 l-20 -23 40 7 c50 8 53 8 95 0 l35
-6 -25 25 c-30 30 -57 39 -85 27z"/>
<path d="M2485 50 c-11 -5 -31 -19 -45 -30 l-25 -21 40 5 c51 8 54 8 93 0 36
-7 42 4 15 28 -25 22 -54 28 -78 18z"/>
<path d="M454 27 l-27 -24 79 0 78 -1 -27 24 c-35 30 -68 30 -103 1z"/>
<path d="M1072 43 c-7 -2 -16 -13 -22 -22 -8 -16 -2 -18 68 -18 l77 -1 -30 24
c-28 22 -64 29 -93 17z"/>
<path d="M1672 34 c-12 -8 -22 -19 -22 -23 0 -4 32 -8 72 -8 l72 0 -28 23
c-32 28 -62 30 -94 8z"/>
<path d="M2274 27 l-27 -24 79 0 78 -1 -27 24 c-35 30 -68 30 -103 1z"/>
<path d="M2882 34 c-12 -8 -22 -19 -22 -23 0 -4 32 -8 72 -8 l72 0 -28 23
c-32 28 -62 30 -94 8z"/>
</g>
</svg>
